<svg width="15" height="23" viewBox="0 0 15 23" fill="none" xmlns="http://www.w3.org/2000/svg">
<path d="M7.58602 0.799316C5.49026 0.799316 3.78516 2.50442 3.78516 4.60018V12.0703C3.78516 14.1658 5.49026 15.8709 7.58602 15.8709C9.68179 15.8709 11.3869 14.1776 11.3869 12.0964V4.60018C11.3869 2.50442 9.68179 0.799316 7.58602 0.799316ZM9.80295 12.0961C9.80295 13.304 8.80837 14.2869 7.58602 14.2869C6.36368 14.2869 5.36885 13.2926 5.36885 12.07V4.60018C5.36885 3.37758 6.36342 2.38301 7.58602 2.38301C8.80863 2.38301 9.8032 3.37758 9.80295 4.60018V12.0961Z" fill="#3C7EF3"/>
<path d="M8.37666 18.1416H6.79297V21.7049H8.37666V18.1416Z" fill="#3C7EF3"/>
<path d="M9.66931 20.9116H5.49888C5.06151 20.9116 4.70703 21.2661 4.70703 21.7035C4.70703 22.1408 5.06151 22.4953 5.49888 22.4953H9.66931C10.1067 22.4953 10.4612 22.1408 10.4612 21.7035C10.4612 21.2661 10.1067 20.9116 9.66931 20.9116Z" fill="#3C7EF3"/>
<path d="M13.576 10.751C13.1386 10.751 12.7842 11.1055 12.7842 11.5428V12.1763C12.7842 15.0433 10.4514 17.3761 7.58431 17.3761C4.71704 17.3761 2.38447 15.0434 2.38447 12.1763V11.5428C2.38447 11.1055 2.02999 10.751 1.59263 10.751C1.15526 10.751 0.800781 11.1055 0.800781 11.5428V12.1763C0.800781 15.9167 3.84387 18.9598 7.58431 18.9598C11.3248 18.9598 14.3678 15.9167 14.3678 12.1763V11.5428C14.3678 11.1055 14.0134 10.751 13.576 10.751Z" fill="#3C7EF3"/>
</svg>
