<svg width="32" height="29" viewBox="0 0 32 29" fill="none" xmlns="http://www.w3.org/2000/svg">
<path d="M32 14.2519C32 12.1321 29.3453 10.1231 25.2752 8.87729C26.2144 4.7289 25.797 1.42845 23.9576 0.371789C23.5336 0.12393 23.0379 0.00652253 22.4965 0.00652253V1.46107C22.7966 1.46107 23.0379 1.51977 23.2401 1.63066C24.1272 2.13942 24.512 4.07664 24.212 6.56828C24.1402 7.18141 24.0228 7.82715 23.8793 8.48594C22.6009 8.17285 21.2051 7.93151 19.7375 7.77497C18.8569 6.56828 17.9437 5.47248 17.0241 4.51366C19.1504 2.5373 21.1464 1.45455 22.5031 1.45455V0C20.7093 0 18.3612 1.27843 15.987 3.49613C13.6127 1.29148 11.2646 0.0260906 9.47085 0.0260906V1.48064C10.821 1.48064 12.8235 2.55687 14.9499 4.52018C14.0367 5.47901 13.1235 6.56828 12.256 7.77497C10.7819 7.93151 9.38606 8.17285 8.10762 8.49246C7.9576 7.8402 7.84672 7.2075 7.76845 6.6009C7.46188 4.10925 7.8402 2.17203 8.72075 1.65675C8.91643 1.53934 9.17081 1.48716 9.47085 1.48716V0.0326131C8.92295 0.0326131 8.42723 0.15002 7.99674 0.39788C6.16388 1.45455 5.75296 4.74847 6.69874 8.88381C2.64166 10.1362 0 12.1386 0 14.2519C0 16.3718 2.65471 18.3808 6.72483 19.6266C5.78557 23.775 6.20302 27.0754 8.0424 28.1321C8.46637 28.3799 8.96209 28.4974 9.50999 28.4974C11.3037 28.4974 13.6519 27.2189 16.0261 25.0012C18.4003 27.2059 20.7485 28.4713 22.5422 28.4713C23.0901 28.4713 23.5858 28.3538 24.0163 28.106C25.8492 27.0493 26.2601 23.7554 25.3143 19.6201C29.3583 18.3742 32 16.3653 32 14.2519ZM23.5075 9.90135C23.2662 10.7428 22.9662 11.6103 22.627 12.4778C22.3596 11.956 22.0791 11.4342 21.7725 10.9124C21.4725 10.3905 21.1529 9.88178 20.8333 9.38606C21.7595 9.52303 22.6531 9.69262 23.5075 9.90135ZM20.5202 16.8479C20.0114 17.7285 19.4896 18.5634 18.9482 19.3396C17.9764 19.4244 16.9914 19.47 16 19.47C15.0151 19.47 14.0302 19.4244 13.0648 19.3461C12.5234 18.5699 11.9951 17.7415 11.4863 16.8675C10.9906 16.013 10.5406 15.1455 10.1296 14.2715C10.534 13.3975 10.9906 12.5234 11.4798 11.669C11.9886 10.7884 12.5104 9.95353 13.0518 9.17733C14.0236 9.09254 15.0086 9.04688 16 9.04688C16.9849 9.04688 17.9698 9.09254 18.9352 9.17081C19.4766 9.947 20.0049 10.7754 20.5137 11.6494C21.0094 12.5039 21.4594 13.3714 21.8704 14.2454C21.4594 15.1194 21.0094 15.9935 20.5202 16.8479ZM22.627 16C22.9792 16.874 23.2793 17.7481 23.5271 18.596C22.6726 18.8047 21.7725 18.9808 20.8398 19.1178C21.1594 18.6156 21.479 18.1003 21.779 17.572C22.0791 17.0501 22.3596 16.5218 22.627 16ZM16.013 22.9596C15.4064 22.3335 14.7998 21.6355 14.1998 20.8724C14.7868 20.8985 15.3869 20.9181 15.9935 20.9181C16.6066 20.9181 17.2132 20.905 17.8068 20.8724C17.2197 21.6355 16.6131 22.3335 16.013 22.9596ZM11.1602 19.1178C10.234 18.9808 9.3404 18.8113 8.48594 18.6025C8.72727 17.7611 9.02731 16.8936 9.36649 16.0261C9.63392 16.5479 9.91439 17.0697 10.221 17.5915C10.5275 18.1133 10.8406 18.6221 11.1602 19.1178ZM15.9804 5.54423C16.587 6.1704 17.1936 6.86832 17.7937 7.63147C17.2067 7.60538 16.6066 7.58581 16 7.58581C15.3869 7.58581 14.7803 7.59886 14.1867 7.63147C14.7737 6.86832 15.3804 6.1704 15.9804 5.54423ZM11.1537 9.38606C10.8341 9.8883 10.5145 10.4036 10.2144 10.9319C9.91439 11.4537 9.63392 11.9755 9.36649 12.4973C9.01427 11.6233 8.71423 10.7493 8.46637 9.90135C9.32083 9.69914 10.221 9.52303 11.1537 9.38606ZM5.25071 17.5524C2.9417 16.5675 1.44802 15.276 1.44802 14.2519C1.44802 13.2279 2.9417 11.9299 5.25071 10.9515C5.81166 10.7101 6.42479 10.4949 7.05748 10.2927C7.42927 11.5711 7.91847 12.9018 8.52507 14.265C7.92499 15.6217 7.44232 16.9458 7.07705 18.2177C6.43131 18.0155 5.81818 17.7937 5.25071 17.5524ZM8.75989 26.8732C7.87281 26.3645 7.48798 24.4272 7.78802 21.9356C7.85976 21.3225 7.97717 20.6767 8.12067 20.0179C9.39911 20.331 10.7949 20.5724 12.2625 20.7289C13.1431 21.9356 14.0563 23.0314 14.9759 23.9902C12.8496 25.9666 10.8536 27.0493 9.49694 27.0493C9.20342 27.0428 8.95557 26.9841 8.75989 26.8732ZM24.2316 21.903C24.5381 24.3946 24.1598 26.3318 23.2792 26.8471C23.0836 26.9645 22.8292 27.0167 22.5291 27.0167C21.179 27.0167 19.1765 25.9405 17.0501 23.9772C17.9633 23.0183 18.8765 21.9291 19.744 20.7224C21.2181 20.5658 22.6139 20.3245 23.8924 20.0049C24.0424 20.6637 24.1598 21.2964 24.2316 21.903ZM26.7428 17.5524C26.1818 17.7937 25.5687 18.009 24.936 18.2112C24.5642 16.9327 24.075 15.6021 23.4684 14.2389C24.0685 12.8822 24.5512 11.5581 24.9164 10.2862C25.5622 10.4884 26.1753 10.7101 26.7493 10.9515C29.0583 11.9364 30.552 13.2279 30.552 14.2519C30.5455 15.276 29.0518 16.574 26.7428 17.5524Z" fill="white"/>
<path d="M15.9926 17.2312C17.6388 17.2312 18.9734 15.8966 18.9734 14.2504C18.9734 12.6041 17.6388 11.2695 15.9926 11.2695C14.3463 11.2695 13.0117 12.6041 13.0117 14.2504C13.0117 15.8966 14.3463 17.2312 15.9926 17.2312Z" fill="white"/>
</svg>
