<svg width="23" height="16" viewBox="0 0 23 16" fill="none" xmlns="http://www.w3.org/2000/svg">
<path d="M7.82903 11.1962C8.0867 10.9699 8.112 10.5779 7.88558 10.3204L7.85136 10.2812C7.74267 10.1579 7.58918 10.0831 7.42499 10.0732C7.41131 10.0732 7.39759 10.0732 7.38362 10.0732C7.23285 10.073 7.08723 10.1279 6.97418 10.2275L6.14104 10.9577L5.3823 11.6226C5.12539 11.8493 5.10025 12.2406 5.32605 12.4981L5.36085 12.5379C5.58773 12.7951 5.98028 12.8204 6.23832 12.5944L6.82153 12.0834L7.82903 11.1962Z" fill="white"/>
<path d="M5.82943 12.8915C5.81215 12.8915 5.79522 12.8915 5.77794 12.89C5.57402 12.8775 5.38364 12.7839 5.24918 12.6304L5.21405 12.5903C4.93476 12.2711 4.966 11.7867 5.28398 11.5059L6.87649 10.1095C7.03019 9.97524 7.23085 9.90714 7.43469 9.92C7.63862 9.93257 7.82899 10.0261 7.96345 10.1796L8.01226 10.2364C8.2785 10.5564 8.24132 11.0298 7.92836 11.3044L6.33644 12.7008C6.1965 12.8242 6.01612 12.892 5.82943 12.8915ZM7.38383 10.2177C7.26907 10.2183 7.15845 10.2605 7.07259 10.3365L5.48067 11.7329C5.2854 11.9054 5.26641 12.203 5.43814 12.399L5.47327 12.439C5.64591 12.6343 5.94427 12.6533 6.14037 12.4815L7.73201 11.0852C7.92782 10.913 7.94697 10.6151 7.77487 10.4194L7.74008 10.3793C7.65769 10.2852 7.541 10.228 7.41604 10.2204L7.38383 10.2177Z" fill="white"/>
<path d="M10.0602 12.7456C9.90944 12.7454 9.76373 12.8001 9.65048 12.8995L8.82892 13.6197C8.57075 13.8459 8.54511 14.2382 8.77162 14.496C8.99817 14.7537 9.39109 14.7793 9.64926 14.5532L10.4708 13.833C10.729 13.6071 10.7548 13.215 10.5286 12.9572C10.4103 12.8225 10.2396 12.7454 10.0602 12.7456Z" fill="white"/>
<path d="M9.24046 14.8584C8.815 14.8591 8.4695 14.5153 8.46875 14.0905C8.46837 13.8685 8.56411 13.657 8.73135 13.5107L9.5532 12.7905C9.87724 12.5227 10.3543 12.5536 10.6408 12.8612C10.9215 13.1807 10.8898 13.667 10.5699 13.9474L9.74839 14.6676C9.60799 14.7909 9.42736 14.8587 9.24046 14.8584ZM10.0611 12.8975C9.94625 12.8966 9.83505 12.9376 9.74835 13.0128L8.9265 13.7329C8.73002 13.9052 8.71065 14.2039 8.88321 14.4001C9.05577 14.5963 9.35492 14.6156 9.55136 14.4433L10.3732 13.724C10.5696 13.5522 10.5893 13.2539 10.4172 13.0578C10.3272 12.9553 10.1973 12.8967 10.0608 12.8969L10.0611 12.8975Z" fill="white"/>
<path d="M2.73297 1.36279L1.0625 8.63931L2.39793 9.38858L5.85371 3.77584L2.73297 1.36279Z" fill="white"/>
<path d="M2.44771 9.5871L0.890625 8.71364L2.63754 1.10205L6.04811 3.73879L2.44771 9.5871ZM1.23043 8.56331L2.34416 9.18722L5.65532 3.80977L2.82382 1.62194L1.23043 8.56331Z" fill="white"/>
<path d="M5.89584 10.3489C6.15393 10.1225 6.17948 9.73021 5.95297 9.47244L5.94227 9.46024C5.83382 9.33622 5.68017 9.26068 5.51559 9.25049C5.50192 9.25049 5.4882 9.25049 5.47423 9.25049C5.32346 9.25024 5.17784 9.30511 5.06479 9.40471L4.06708 10.277C3.80899 10.5033 3.78344 10.8957 4.00995 11.1534C4.23198 11.4172 4.62616 11.4513 4.89035 11.2296C4.89307 11.2273 4.89579 11.225 4.89846 11.2226L4.97404 11.1564L5.73341 10.4909L5.89584 10.3489Z" fill="white"/>
<path d="M4.49401 11.5293C4.47498 11.5293 4.45562 11.5293 4.436 11.5272C4.22815 11.5112 4.03501 11.4139 3.89863 11.2565C3.61779 10.9372 3.64937 10.4511 3.96914 10.1706L4.96564 9.29747C5.28546 9.01744 5.77198 9.04897 6.0529 9.36788C6.19434 9.52297 6.26669 9.72867 6.25343 9.93801C6.24085 10.1417 6.14708 10.332 5.99309 10.4663L4.99688 11.3394C4.85816 11.462 4.67924 11.5296 4.49401 11.5293ZM5.47324 9.40325C5.35848 9.40371 5.24778 9.44597 5.162 9.52209L4.1655 10.3953C3.9691 10.5674 3.94965 10.8658 4.122 11.0619L4.12204 11.0619C4.20703 11.1607 4.32764 11.222 4.45767 11.2325C4.58267 11.2423 4.7063 11.2008 4.80015 11.1178L5.79636 10.2446C5.99259 10.0724 6.01204 9.77406 5.83981 9.57797C5.75625 9.47728 5.63509 9.41515 5.50448 9.40596L5.47324 9.40325Z" fill="white"/>
<path d="M9.37004 12.09C9.38129 11.9256 9.32608 11.7635 9.2168 11.6399L9.20789 11.6298C9.09936 11.5066 8.94608 11.4318 8.7821 11.4219C8.76842 11.4219 8.75441 11.4219 8.74073 11.4219C8.58996 11.4216 8.44434 11.4765 8.33129 11.5761L8.23368 11.6616L7.22555 12.5452L6.95776 12.7787C6.69918 13.0123 6.67927 13.411 6.91322 13.6692C7.02238 13.7896 7.17394 13.8634 7.33626 13.875C7.50099 13.8864 7.66343 13.8313 7.78706 13.722L9.15967 12.5191C9.28463 12.41 9.36046 12.2554 9.37004 12.09Z" fill="white"/>
<path d="M7.37769 14.0193C7.36071 14.0193 7.34407 14.0193 7.32713 14.0178C6.89853 13.9913 6.57261 13.6229 6.59917 13.195C6.61188 12.9897 6.70569 12.7978 6.85997 12.6615L8.23141 11.4571C8.38536 11.3232 8.58586 11.2551 8.78961 11.2676C8.99325 11.28 9.18345 11.3733 9.31779 11.5266C9.45894 11.6815 9.53112 11.8869 9.51774 12.0959C9.50486 12.2991 9.41134 12.4887 9.25798 12.6229L7.88537 13.8259C7.74548 13.9502 7.56489 14.019 7.37769 14.0193ZM8.32986 11.767L7.05604 12.8835C6.85956 13.0555 6.83961 13.3539 7.01141 13.5505C7.09502 13.6498 7.21538 13.711 7.34499 13.7201C7.47071 13.729 7.59471 13.6869 7.68898 13.6034L9.06158 12.4004C9.25794 12.2285 9.2776 11.9303 9.10546 11.7342C9.10533 11.734 9.10516 11.7339 9.10504 11.7337C9.02169 11.6339 8.90107 11.5725 8.77117 11.5638H8.73964C8.62475 11.5638 8.51392 11.6061 8.42839 11.6826L8.32986 11.767Z" fill="white"/>
<path d="M17.5915 10.1044L12.7491 6.16455C10.8948 7.14766 9.58167 6.64168 8.95384 6.24151C8.62658 6.02829 8.5344 5.5905 8.74795 5.26374C8.81428 5.16223 8.9057 5.07946 9.01335 5.02342L10.6273 4.1675C10.5856 4.16128 10.5448 4.15593 10.5082 4.15234C9.05178 4.3821 7.58089 4.50858 6.10653 4.53084L3.28516 9.11264L3.91416 9.59127L4.65358 8.94302C5.16695 8.49303 5.94849 8.54377 6.39916 9.05635C6.3992 9.05639 6.39925 9.05648 6.39933 9.05652L6.41004 9.06871C6.558 9.23812 6.65641 9.44491 6.69451 9.66648C6.91872 9.51373 7.18781 9.44053 7.45865 9.45852C7.78624 9.4789 8.09205 9.62932 8.30785 9.87623L8.34265 9.91603C8.55958 10.1616 8.66919 10.4836 8.64703 10.8103V10.8121C8.70366 10.8063 8.76062 10.8044 8.81754 10.8064C9.14513 10.8269 9.45089 10.9773 9.66674 11.2241L9.44445 11.4369L9.67565 11.2343C9.89291 11.4799 10.0027 11.8021 9.98066 12.1291C9.98066 12.1333 9.97886 12.1371 9.97857 12.1413C10.656 12.0931 11.2443 12.6025 11.2925 13.2789C11.2966 13.3354 11.2967 13.3921 11.2929 13.4485C11.2776 13.661 11.2071 13.8658 11.0882 14.0427L12.4149 14.8071C12.7058 14.9718 13.0752 14.8741 13.2463 14.5873C13.4085 14.3135 13.3294 13.9609 13.0656 13.7824L10.953 12.3207C10.9512 12.3207 10.9504 12.3175 10.9488 12.3163L10.8066 12.2179C10.6686 12.1189 10.6371 11.927 10.7363 11.7892C10.833 11.6548 11.0189 11.621 11.1568 11.7128L14.1365 13.7738C14.4114 13.964 14.7886 13.8958 14.9791 13.6213C14.9793 13.6212 14.9794 13.621 14.9795 13.6208C15.1665 13.3479 15.1003 12.9759 14.8307 12.7839L11.8656 10.684C11.8638 10.684 11.8632 10.6807 11.8614 10.6795C11.7229 10.5811 11.6906 10.3891 11.7891 10.2508C11.8877 10.1125 12.08 10.0802 12.2185 10.1786L15.5428 12.5334C15.8335 12.7384 16.2357 12.6692 16.441 12.3789C16.6397 12.0979 16.5819 11.7105 16.3098 11.4995L12.7329 8.92606C12.5916 8.8319 12.5534 8.64119 12.6477 8.50005C12.7421 8.3589 12.9331 8.32082 13.0744 8.41498C13.0797 8.41853 13.0849 8.42221 13.09 8.42609L13.3346 8.60018H13.3379L16.6529 10.985C16.6591 10.9895 16.6636 10.9951 16.6696 10.9996L16.7243 11.0388C16.7347 11.046 16.7447 11.0538 16.754 11.0623L16.8135 11.103C17.0906 11.3012 17.4746 11.2482 17.6875 10.9823C17.8147 10.8218 17.8559 10.6095 17.7979 10.4131C17.7626 10.2914 17.6905 10.1836 17.5915 10.1044Z" fill="white"/>
<path d="M12.7224 15.0381C12.5908 15.0381 12.4617 15.0036 12.3478 14.938L10.8829 14.0945L10.9722 13.9638C11.3028 13.4657 11.1665 12.7942 10.6676 12.4641C10.5094 12.3593 10.3264 12.2979 10.1369 12.286C10.1 12.2842 10.063 12.2852 10.0262 12.289L9.82656 12.3015L9.83814 12.1325C9.85688 11.8924 9.7951 11.6529 9.66257 11.4518L9.55099 11.5498L9.34982 11.3312L9.46291 11.223C9.28299 11.0647 9.05539 10.9706 8.81604 10.9557C8.77268 10.9542 8.72922 10.9556 8.68602 10.9598L8.52622 10.9717L8.50627 10.7959V10.7896C8.52187 10.5064 8.42572 10.2284 8.23848 10.0151L8.20335 9.97496C7.84514 9.5644 7.23621 9.48585 6.7852 9.79194L6.59566 9.91909L6.5558 9.69447C6.45472 9.10063 5.89062 8.70108 5.29586 8.80205C5.09695 8.83584 4.91126 8.92395 4.75945 9.05661L3.9284 9.78509L3.09375 9.15078L6.02792 4.38531L6.10797 4.38293C7.5743 4.36059 9.03724 4.23498 10.4859 4.00711L10.5067 4.00293L10.5278 4.00473C10.5671 4.00827 10.6106 4.01425 10.6555 4.02076L11.1018 4.08762L9.08914 5.15479C8.81496 5.29623 8.70756 5.63284 8.84921 5.90661C8.89363 5.99242 8.95958 6.06525 9.04063 6.11799C9.63129 6.4944 10.8917 6.98494 12.6854 6.03452L12.7726 5.98817L17.6911 9.98979C17.8132 10.0888 17.9018 10.2229 17.9449 10.3739C18.0168 10.6161 17.9662 10.8781 17.8093 11.0763C17.5465 11.4042 17.0726 11.4695 16.7306 11.2248L16.5637 11.1003L13.0097 8.54528C12.9387 8.49438 12.8398 8.51058 12.7888 8.58149C12.7887 8.5817 12.7885 8.5819 12.7884 8.58216C12.7373 8.65323 12.7536 8.75215 12.8248 8.80314C12.8249 8.80327 12.8251 8.80339 12.8253 8.80352L16.4027 11.379C16.7496 11.6463 16.8137 12.1437 16.546 12.49C16.2869 12.8252 15.8096 12.8976 15.4625 12.6545L12.1373 10.3009C12.1028 10.2765 12.06 10.2667 12.0183 10.2739C11.9318 10.2885 11.8735 10.3704 11.8881 10.4568C11.8952 10.4983 11.9185 10.5353 11.9528 10.5597L14.923 12.6647C15.2586 12.9041 15.3405 13.3676 15.1072 13.7072C14.8703 14.0493 14.4005 14.135 14.0578 13.8985C14.0577 13.8984 14.0576 13.8983 14.0574 13.8982L11.0783 11.8369C11.0079 11.7847 10.9084 11.7994 10.8561 11.8698C10.8037 11.9401 10.8185 12.0395 10.8889 12.0917C10.8918 12.0938 10.8947 12.0958 10.8977 12.0978L13.1574 13.6623C13.501 13.8972 13.5888 14.3657 13.3536 14.7088C13.2522 14.8566 13.1014 14.9635 12.9283 15.0102C12.8612 15.0286 12.792 15.038 12.7224 15.0381ZM11.2995 13.9908L12.4965 14.6806C12.7197 14.8012 12.9985 14.7183 13.1192 14.4955C13.2282 14.2945 13.1723 14.044 12.9881 13.9082L11.2995 12.7382C11.4138 12.9606 11.4652 13.2099 11.4482 13.4592C11.4362 13.6449 11.3855 13.8259 11.2995 13.9908ZM10.9895 11.5121C11.082 11.512 11.1723 11.5401 11.2483 11.5926L14.2274 13.6536C14.4349 13.7968 14.7194 13.7451 14.863 13.538C15.0042 13.3323 14.9544 13.0516 14.7511 12.9067L11.7649 10.7896C11.5672 10.6333 11.5339 10.3467 11.6904 10.1493C11.8403 9.96035 12.1117 9.92064 12.3097 10.0587L15.6348 12.4135C15.8593 12.57 16.1684 12.5151 16.3251 12.2909C16.4755 12.0757 16.4316 11.7807 16.2249 11.6185L12.6519 9.04772C12.4469 8.90136 12.3995 8.61677 12.5461 8.41207C12.6927 8.20737 12.9777 8.1601 13.1828 8.30647L13.4309 8.48206L16.8171 10.921C16.8323 10.9319 16.8468 10.9438 16.8605 10.9566L16.9025 10.984C17.1144 11.1373 17.4096 11.0981 17.5741 10.8949C17.6718 10.772 17.7035 10.6093 17.6592 10.4587C17.6333 10.3654 17.5792 10.2824 17.5041 10.221L12.737 6.34274C10.8568 7.30234 9.51632 6.77414 8.87982 6.368C8.48306 6.11098 8.37009 5.58148 8.62751 5.18532C8.7081 5.06125 8.81956 4.9602 8.95096 4.89201L9.86328 4.40832C8.93549 4.53401 7.66882 4.62759 6.19801 4.6757L3.49023 9.07561L3.91602 9.39916L4.56439 8.83112C5.13932 8.32705 6.0147 8.3838 6.51954 8.95786C6.51967 8.95798 6.51979 8.95815 6.51992 8.95827C6.6443 9.09875 6.73923 9.26269 6.79904 9.44046C7.0097 9.33823 7.24348 9.29284 7.47715 9.30884C7.84447 9.33159 8.18737 9.50021 8.42931 9.77707L8.46445 9.81716C8.67021 10.05 8.79074 10.3457 8.80634 10.6559H8.83608C9.15652 10.6768 9.45957 10.8089 9.69272 11.0293L9.69749 11.0251L9.77813 11.1173L9.78674 11.1268L9.88046 11.2334L9.87628 11.2376C10.036 11.4563 10.1272 11.7174 10.1384 11.9878H10.1566C10.2887 11.9964 10.419 12.0238 10.5434 12.0692C10.4862 11.8246 10.6385 11.5799 10.8834 11.5228C10.9183 11.5147 10.954 11.5107 10.9897 11.5109L10.9895 11.5121Z" fill="white"/>
<path d="M20.2178 1.25342L17.0977 3.66644L19.9839 8.35371C20.0029 8.36352 20.0208 8.37538 20.0372 8.38908C20.0867 8.43998 20.1166 8.50667 20.1217 8.57745L20.5541 9.27948L21.8883 8.52993L20.2178 1.25342Z" fill="white"/>
<path d="M20.5033 9.47809L19.9782 8.62484L19.9749 8.59039C19.973 8.55402 19.9582 8.51949 19.9332 8.49293L19.8761 8.45906L19.8586 8.42937L16.9023 3.62971L20.3135 0.992676L22.0607 8.6043L20.5033 9.47809ZM20.2653 8.52558L20.6063 9.07909L21.72 8.45518L20.1272 1.51232L17.296 3.70133L20.093 8.24367C20.1115 8.25469 20.1285 8.26785 20.1439 8.28288C20.2091 8.34899 20.2519 8.43388 20.2662 8.52562L20.2653 8.52558Z" fill="white"/>
<path d="M16.2978 4.5012C15.6925 4.74999 15.0181 4.77446 14.3964 4.57014L12.7584 4.03922C12.532 3.96757 12.2863 3.98895 12.0758 4.09865L11.5206 4.39308C11.5146 4.39605 11.5096 4.39964 11.5033 4.40231L9.3032 5.56933C9.27187 5.58432 9.25146 5.61547 9.25025 5.65013C9.24783 5.68149 9.26309 5.71164 9.28982 5.72826C9.93697 6.14062 11.0454 6.44128 12.6322 5.53217C12.7428 5.46899 12.8809 5.48018 12.9798 5.56039L17.981 9.63061C18.0507 9.68778 18.1136 9.75267 18.1685 9.82404L19.4051 8.58841L16.7697 4.30844L16.2978 4.5012Z" fill="white"/>
<path d="M18.1548 10.0386L18.0513 9.90757C18.0034 9.84501 17.9485 9.78818 17.8876 9.73824L12.8851 5.66921C12.8342 5.62854 12.7635 5.62278 12.7066 5.65464C11.0549 6.6018 9.89355 6.2821 9.21005 5.84715C9.13812 5.80188 9.09667 5.72095 9.10202 5.63623C9.10562 5.54895 9.15631 5.47049 9.23443 5.43124L12.0061 3.96152C12.2521 3.83282 12.5394 3.8076 12.8042 3.89141L14.4416 4.42144C15.0297 4.61491 15.6677 4.59194 16.2403 4.35668L16.8303 4.11544L19.5934 8.60159L18.1548 10.0386ZM12.7836 5.33615C12.8888 5.33594 12.9908 5.37181 13.0726 5.43775L18.0741 9.50795C18.1093 9.5363 18.1428 9.56678 18.1744 9.59914L19.2158 8.55933L16.7083 4.48583L16.3536 4.63082C15.7155 4.8931 15.0045 4.91878 14.349 4.70331L12.7125 4.17269C12.524 4.1136 12.3198 4.13177 12.1447 4.22322L9.45693 5.6493C10.0797 6.01054 11.1042 6.23069 12.5583 5.39679C12.6269 5.35737 12.7046 5.33649 12.7836 5.33615Z" fill="white"/>
</svg>
