<svg width="14" height="13" viewBox="0 0 14 13" fill="none" xmlns="http://www.w3.org/2000/svg">
<path d="M12.1147 0.135742H10.7536C10.2282 0.135742 9.80078 0.562474 9.80078 1.08706V7.33854C9.80078 7.86312 10.2282 8.28986 10.7536 8.28986H12.1147C12.6401 8.28986 13.0675 7.86312 13.0675 7.33854V1.08706C13.0675 0.562474 12.6401 0.135742 12.1147 0.135742Z" fill="#EB5757"/>
<path d="M2.78695 0C1.72528 0 0.821504 0.761055 0.641838 1.80479L0.0320601 5.33825C-0.196606 6.6701 0.826949 7.88235 2.17717 7.88235H4.74695C4.74695 7.88235 4.33861 8.69776 4.33861 10.0568C4.33861 11.6876 5.56361 12.2312 6.10806 12.2312C6.6525 12.2312 6.92473 11.9594 6.92473 10.6004C6.92473 9.30878 8.17749 8.2694 8.98327 7.73394V0.999699C8.11161 0.596884 6.36667 0 3.65806 0H2.78695Z" fill="#EB5757"/>
</svg>
