<svg width="16" height="19" viewBox="0 0 16 19" fill="none" xmlns="http://www.w3.org/2000/svg">
<path d="M7.3531 18.0648C7.35327 18.065 7.35345 18.0651 7.35362 18.0653C7.3748 18.0864 7.3971 18.1065 7.42026 18.1256C7.43088 18.1343 7.44209 18.1418 7.453 18.15C7.46602 18.1598 7.47879 18.1699 7.49232 18.179C7.50538 18.1877 7.51892 18.1952 7.53232 18.2032C7.54461 18.2106 7.5566 18.2183 7.56924 18.225C7.5829 18.2323 7.59695 18.2385 7.61091 18.2451C7.62406 18.2513 7.63704 18.2579 7.65053 18.2635C7.66407 18.2691 7.6779 18.2736 7.69165 18.2785C7.70613 18.2837 7.7204 18.2893 7.73518 18.2937C7.74893 18.2979 7.7629 18.3009 7.77682 18.3044C7.7919 18.3083 7.80681 18.3125 7.82219 18.3155C7.83831 18.3187 7.85455 18.3206 7.87075 18.3229C7.88411 18.3248 7.8973 18.3274 7.91084 18.3287C7.97099 18.3346 8.03162 18.3346 8.09178 18.3287C8.10531 18.3274 8.1185 18.3248 8.13187 18.3229C8.14807 18.3206 8.16431 18.3187 8.18042 18.3155C8.19581 18.3125 8.21072 18.3083 8.2258 18.3044C8.23968 18.3009 8.25368 18.2979 8.26743 18.2937C8.28222 18.2893 8.29652 18.2837 8.31096 18.2785C8.32471 18.2736 8.33855 18.2691 8.35208 18.2635C8.36557 18.2579 8.37855 18.2513 8.3917 18.2451C8.40566 18.2385 8.41972 18.2323 8.43338 18.225C8.44601 18.2183 8.458 18.2105 8.47029 18.2032C8.4837 18.1952 8.49723 18.1877 8.51029 18.179C8.52383 18.1699 8.53659 18.1598 8.54961 18.15C8.56052 18.1419 8.57174 18.1343 8.58235 18.1256C8.60551 18.1065 8.62781 18.0865 8.649 18.0653C8.64917 18.0651 8.64934 18.065 8.64951 18.0648L15.0662 11.6482C15.4241 11.2902 15.4241 10.7098 15.0662 10.3518C14.7082 9.99384 14.1278 9.99384 13.7698 10.3518L8.91794 15.2036V0.916652C8.91794 0.410395 8.50754 0 8.00129 0C7.49503 0 7.08463 0.410395 7.08463 0.916652V15.2036L2.23282 10.3518C1.87484 9.99384 1.29442 9.99384 0.936448 10.3518C0.578476 10.7098 0.578476 11.2902 0.936448 11.6482L7.3531 18.0648Z" fill="#3C7EF3"/>
</svg>
