<svg width="14" height="13" viewBox="0 0 14 13" fill="none" xmlns="http://www.w3.org/2000/svg">
<path d="M0.951739 12.8638L2.31285 12.8638C2.83824 12.8638 3.26563 12.437 3.26563 11.9125L3.26563 5.66097C3.26563 5.13639 2.83824 4.70966 2.31285 4.70966L0.95174 4.70966C0.426352 4.70966 -0.00103644 5.13639 -0.00103649 5.66097L-0.00103704 11.9125C-0.00103708 12.437 0.426351 12.8638 0.951739 12.8638Z" fill="#6FCF97"/>
<path d="M10.2795 13C11.3411 13 12.2449 12.2389 12.4246 11.1952L13.0343 7.66173C13.263 6.32989 12.2395 5.11763 10.8892 5.11763L8.31946 5.11763C8.31946 5.11763 8.72779 4.30221 8.72779 2.94319C8.72779 1.31235 7.50279 0.768739 6.95835 0.768739C6.41391 0.768739 6.14168 1.04054 6.14168 2.39957C6.14168 3.69119 4.88892 4.73058 4.08314 5.26604L4.08314 12.0003C4.95479 12.4031 6.69974 13 9.40835 13L10.2795 13Z" fill="#6FCF97"/>
</svg>
