<svg width="450" height="326" viewBox="0 0 450 326" fill="none" xmlns="http://www.w3.org/2000/svg">
<g clip-path="url(#clip0)">
<path d="M66.7116 231.092C66.3424 230.532 65.8552 230.06 65.2842 229.709C64.7132 229.358 64.0723 229.137 63.4067 229.061C62.7412 228.985 62.0671 229.056 61.432 229.269C60.7969 229.483 60.2162 229.833 59.7308 230.296L45.2617 222.812L46.1612 231.243L59.7634 237.056C60.5929 237.822 61.6739 238.256 62.8015 238.276C63.9291 238.297 65.025 237.902 65.8815 237.167C66.7379 236.431 67.2955 235.407 67.4485 234.287C67.6015 233.168 67.3393 232.031 66.7116 231.092H66.7116Z" fill="#A0616A"/>
<path d="M53.8532 234.485C53.5913 234.606 53.3072 234.669 53.0192 234.672C52.7311 234.675 52.4457 234.618 52.1814 234.503L38.4378 228.529C33.7385 226.488 29.9394 222.805 27.7472 218.166L20.5219 202.885C19.9886 202.198 19.5957 201.413 19.3654 200.575C19.1352 199.736 19.0722 198.86 19.1801 197.997C19.288 197.134 19.5646 196.3 19.9941 195.544C20.4237 194.789 20.9977 194.125 21.6834 193.591C22.3691 193.058 23.153 192.665 23.9904 192.436C24.8277 192.206 25.7019 192.144 26.5632 192.253C27.4245 192.362 28.2558 192.64 29.0097 193.072C29.7635 193.503 30.4252 194.079 30.9567 194.767L43.6571 218.377L55.3842 227.254C55.7199 227.509 55.9692 227.861 56.0985 228.263C56.2278 228.665 56.2309 229.097 56.1072 229.501L54.9562 233.226C54.8325 233.625 54.5903 233.977 54.2618 234.235C54.1359 234.335 53.9987 234.418 53.8532 234.485Z" fill="#CCCCCC"/>
<path d="M20.2031 184.913C26.3839 184.913 31.3945 179.892 31.3945 173.699C31.3945 167.506 26.3839 162.485 20.2031 162.485C14.0223 162.485 9.01172 167.506 9.01172 173.699C9.01172 179.892 14.0223 184.913 20.2031 184.913Z" fill="#A0616A"/>
<path d="M24.7357 320.802L30.3216 320.802L32.9795 299.212L24.7344 299.212L24.7357 320.802Z" fill="#A0616A"/>
<path d="M41.0976 325.999L23.5409 326L23.5406 319.203L34.314 319.203C36.1131 319.203 37.8385 319.919 39.1107 321.194C40.3828 322.468 41.0976 324.197 41.0977 326L41.0976 325.999Z" fill="#2F2E41"/>
<path d="M6.50918 320.802L12.0951 320.802L14.7529 299.212L6.50781 299.212L6.50918 320.802Z" fill="#A0616A"/>
<path d="M22.8711 325.999L5.31434 326L5.31403 319.203L16.0875 319.203C17.8865 319.203 19.6119 319.919 20.8841 321.194C22.1563 322.468 22.871 324.197 22.8711 326L22.8711 325.999Z" fill="#2F2E41"/>
<path d="M4.5586 314.623C4.36612 314.402 4.22284 314.143 4.13836 313.863C4.05388 313.583 4.03015 313.288 4.06877 312.998L13.8492 239.498L38.1487 243.633L40.7421 242.073L34.036 311.811C33.9802 312.282 33.764 312.719 33.424 313.048C33.084 313.378 32.6409 313.58 32.1695 313.621L24.8117 314.235C24.5192 314.26 24.2248 314.221 23.9485 314.121C23.6722 314.022 23.4205 313.865 23.2102 313.659C23 313.454 22.8362 313.206 22.7299 312.932C22.6237 312.657 22.5774 312.364 22.5943 312.07L24.4992 278.858C24.5026 278.802 24.4849 278.746 24.4497 278.702C24.4145 278.658 24.3641 278.629 24.3085 278.62C24.2528 278.61 24.1957 278.622 24.1483 278.653C24.1009 278.684 24.0665 278.731 24.0518 278.785L14.6274 313.804C14.5096 314.24 14.2519 314.625 13.8942 314.899C13.5364 315.174 13.0984 315.323 12.6477 315.324H6.10134C5.80916 315.324 5.52035 315.261 5.25427 315.14C4.9882 315.019 4.75101 314.843 4.5586 314.623Z" fill="#2F2E41"/>
<path d="M21.387 244.643C21.1081 244.389 20.7495 244.242 20.3736 244.227C19.9977 244.211 19.6281 244.328 19.3292 244.556L14.471 248.343C14.2067 248.549 13.8957 248.688 13.5655 248.746C13.2353 248.804 12.8958 248.78 12.577 248.676C12.2582 248.572 11.9697 248.391 11.7369 248.15C11.504 247.908 11.334 247.613 11.2416 247.29C8.85866 238.927 3.45976 217.879 4.78979 203.064C5.5437 194.667 12.7807 188.284 20.9223 188.82C26.4884 189.192 30.1502 192.409 31.8061 198.382C35.8717 213.048 40.3397 239.95 41.1941 245.194C41.2615 245.601 41.2047 246.019 41.0309 246.393C40.8572 246.766 40.5747 247.079 40.2206 247.289C37.922 248.672 35.2958 249.412 32.6148 249.434C29.371 249.434 25.4814 248.302 21.387 244.643Z" fill="#CCCCCC"/>
<path d="M23.2204 249.859C23.2748 249.19 23.1821 248.518 22.949 247.888C22.7158 247.259 22.3478 246.689 21.8708 246.218C21.3939 245.746 20.8196 245.386 20.1885 245.161C19.5573 244.936 18.8847 244.852 18.2178 244.916L11.4414 230.081L6.95703 237.271L14.0796 250.256C14.2608 251.372 14.8441 252.382 15.7189 253.095C16.5936 253.808 17.6991 254.175 18.8259 254.126C19.9526 254.077 21.0223 253.616 21.8322 252.829C22.6421 252.043 23.1361 250.986 23.2204 249.859Z" fill="#A0616A"/>
<path d="M11.0136 244.578C10.7335 244.511 10.4706 244.385 10.2421 244.21C10.0136 244.034 9.82449 243.812 9.68716 243.558L2.55196 230.359C0.111824 225.847 -0.609447 220.6 0.522311 215.595L4.24888 199.102C4.25226 198.232 4.42667 197.372 4.76216 196.57C5.09764 195.768 5.58761 195.04 6.20406 194.427C6.8205 193.815 7.55134 193.331 8.35479 193.001C9.15824 192.672 10.0185 192.505 10.8865 192.509C11.7545 192.514 12.6131 192.689 13.4133 193.026C14.2135 193.363 14.9396 193.855 15.5501 194.473C16.1605 195.091 16.6434 195.824 16.971 196.63C17.2986 197.435 17.4647 198.297 17.4596 199.167L12.9115 225.599L16.6723 239.835C16.7792 240.243 16.7584 240.674 16.6126 241.071C16.4669 241.467 16.2032 241.808 15.8573 242.05L12.6572 244.269C12.314 244.507 11.9065 244.634 11.4891 244.634C11.3289 244.634 11.1693 244.615 11.0136 244.578Z" fill="#CCCCCC"/>
<path opacity="0.2" d="M16.5501 210.314L12.4492 227.663L18.3727 242.274L14.2718 228.12L16.5501 210.314Z" fill="black"/>
<path d="M13.8171 182.92C12.8216 182.939 11.8323 182.759 10.9064 182.392C10.499 182.235 10.0761 182.106 9.66942 181.948C6.07808 180.558 3.71233 176.726 3.6276 172.869C3.54287 169.012 5.53619 165.269 8.49612 162.802C11.456 160.335 15.2899 159.068 19.1289 158.775C23.264 158.46 27.9204 159.511 30.2311 162.961C30.8461 163.88 31.2763 164.994 30.9118 166.103C30.8027 166.438 30.6077 166.738 30.3464 166.973C29.3145 167.893 28.2857 167.202 27.2338 167.14C25.7879 167.056 24.4892 168.229 24.0224 169.603C23.5557 170.977 23.7611 172.489 24.138 173.89C24.4251 174.734 24.6061 175.609 24.6768 176.497C24.7072 176.943 24.6237 177.388 24.434 177.792C24.2443 178.196 23.9549 178.545 23.593 178.805C22.6895 179.352 21.503 179.036 20.5989 178.489C19.6948 177.943 18.9137 177.183 17.9372 176.781C16.9606 176.379 15.6487 176.468 15.0803 177.36C14.8997 177.684 14.7774 178.038 14.7191 178.405C14.2095 180.731 14.3267 180.594 13.8171 182.92L13.8171 182.92Z" fill="#2F2E41"/>
<path d="M345.084 105.229H68.5008C67.4472 105.23 66.4371 105.65 65.6922 106.396C64.9472 107.142 64.5283 108.155 64.5273 109.21V297.005C64.5283 298.06 64.9472 299.072 65.6922 299.819C66.4371 300.565 67.4472 300.985 68.5008 300.986H345.084C345.658 300.986 346.226 300.861 346.748 300.62C347.269 300.378 347.732 300.027 348.105 299.589C348.136 299.554 348.165 299.518 348.191 299.479C348.429 299.188 348.621 298.864 348.761 298.516C348.961 298.037 349.063 297.523 349.062 297.004V180.101H347.927V297.004C347.928 297.56 347.764 298.103 347.458 298.566C347.185 298.973 346.816 299.306 346.382 299.534C345.981 299.742 345.536 299.85 345.084 299.849H68.5008C67.7481 299.848 67.0266 299.548 66.4944 299.015C65.9621 298.482 65.6627 297.759 65.6618 297.005V109.21C65.6627 108.456 65.9621 107.733 66.4943 107.2C67.0266 106.667 67.7481 106.367 68.5008 106.366H345.084C345.837 106.366 346.56 106.665 347.093 107.199C347.626 107.732 347.926 108.455 347.927 109.21V134.445H349.062V109.21C349.061 108.154 348.641 107.141 347.895 106.395C347.149 105.648 346.138 105.229 345.084 105.229Z" fill="#3F3D56"/>
<path d="M348.492 121.188H65.0938V122.326H348.492V121.188Z" fill="#3F3D56"/>
<path d="M74.7474 117.181C76.6294 117.181 78.155 115.653 78.155 113.767C78.155 111.881 76.6294 110.353 74.7474 110.353C72.8655 110.353 71.3398 111.881 71.3398 113.767C71.3398 115.653 72.8655 117.181 74.7474 117.181Z" fill="#CCCCCC"/>
<path d="M84.5443 117.181C86.4263 117.181 87.9519 115.653 87.9519 113.767C87.9519 111.881 86.4263 110.353 84.5443 110.353C82.6624 110.353 81.1367 111.881 81.1367 113.767C81.1367 115.653 82.6624 117.181 84.5443 117.181Z" fill="#CCCCCC"/>
<path d="M94.3412 117.181C96.2232 117.181 97.7488 115.653 97.7488 113.767C97.7488 111.881 96.2232 110.353 94.3412 110.353C92.4592 110.353 90.9336 111.881 90.9336 113.767C90.9336 115.653 92.4592 117.181 94.3412 117.181Z" fill="#CCCCCC"/>
<path d="M162.786 277.968C161.613 277.963 160.46 277.664 159.431 277.099C158.402 276.535 157.53 275.722 156.894 274.735C156.257 273.747 155.877 272.617 155.787 271.445C155.696 270.273 155.899 269.097 156.377 268.023L164.495 249.875C158.101 244.208 152.985 237.243 149.486 229.442C145.986 221.642 144.184 213.184 144.199 204.631C144.199 171.217 171.329 144.033 204.677 144.033C238.025 144.033 265.155 171.217 265.155 204.631C265.155 238.045 238.025 265.23 204.677 265.23C198.843 265.224 193.042 264.367 187.454 262.688L166.736 276.742C165.572 277.538 164.196 277.965 162.786 277.968ZM204.677 152.488C193.884 152.482 183.357 155.84 174.554 162.097C165.752 168.354 159.11 177.201 155.55 187.409C151.989 197.618 151.687 208.684 154.684 219.073C157.681 229.462 163.83 238.659 172.277 245.39L174.834 247.433L166.1 266.962L186.145 253.365L188.124 254.031C195.274 256.438 202.861 257.258 210.358 256.435C217.856 255.612 225.086 253.165 231.546 249.264C238.006 245.362 243.542 240.1 247.771 233.842C252 227.584 254.82 220.479 256.036 213.02C257.252 205.561 256.834 197.927 254.813 190.645C252.791 183.364 249.214 176.611 244.328 170.852C239.443 165.094 233.366 160.47 226.519 157.299C219.673 154.128 212.22 152.486 204.677 152.488Z" fill="#3C7EF3"/>
<path d="M204.677 210.268C209.338 210.268 213.116 206.482 213.116 201.813C213.116 197.143 209.338 193.357 204.677 193.357C200.016 193.357 196.238 197.143 196.238 201.813C196.238 206.482 200.016 210.268 204.677 210.268Z" fill="#E0E0E0"/>
<path d="M180.767 210.268C185.427 210.268 189.206 206.482 189.206 201.813C189.206 197.143 185.427 193.357 180.767 193.357C176.106 193.357 172.328 197.143 172.328 201.813C172.328 206.482 176.106 210.268 180.767 210.268Z" fill="#E0E0E0"/>
<path d="M228.587 210.268C233.248 210.268 237.026 206.482 237.026 201.813C237.026 197.143 233.248 193.357 228.587 193.357C223.927 193.357 220.148 197.143 220.148 201.813C220.148 206.482 223.927 210.268 228.587 210.268Z" fill="#E0E0E0"/>
<path d="M416.884 168.346H336.688C335.721 168.346 334.794 167.961 334.111 167.276C333.427 166.591 333.043 165.662 333.043 164.693C333.043 163.724 333.427 162.795 334.111 162.11C334.794 161.425 335.721 161.041 336.688 161.041H416.884C417.85 161.041 418.778 161.425 419.461 162.11C420.145 162.795 420.529 163.724 420.529 164.693C420.529 165.662 420.145 166.591 419.461 167.276C418.778 167.961 417.85 168.346 416.884 168.346Z" fill="#CCCCCC"/>
<path d="M364.483 152.822H336.688C335.721 152.822 334.794 152.437 334.111 151.752C333.427 151.067 333.043 150.138 333.043 149.17C333.043 148.201 333.427 147.272 334.111 146.587C334.794 145.902 335.721 145.517 336.688 145.517H364.483C365.45 145.517 366.377 145.902 367.061 146.587C367.744 147.272 368.129 148.201 368.129 149.17C368.129 150.138 367.744 151.067 367.061 151.752C366.377 152.437 365.45 152.822 364.483 152.822Z" fill="#CCCCCC"/>
<path d="M300.367 172.796C308.923 172.796 315.86 165.846 315.86 157.273C315.86 148.699 308.923 141.75 300.367 141.75C291.811 141.75 284.875 148.699 284.875 157.273C284.875 165.846 291.811 172.796 300.367 172.796Z" fill="#3C7EF3"/>
<path d="M424.923 133.532H280.481C278.427 133.535 276.458 134.353 275.006 135.808C273.554 137.263 272.737 139.236 272.734 141.293V173.253C272.737 175.31 273.554 177.283 275.006 178.738C276.458 180.193 278.427 181.012 280.481 181.014H424.923C426.977 181.012 428.946 180.193 430.398 178.738C431.85 177.283 432.667 175.31 432.67 173.253V141.293C432.667 139.236 431.85 137.263 430.398 135.808C428.946 134.353 426.977 133.535 424.923 133.532ZM431.758 173.253C431.756 175.069 431.035 176.809 429.754 178.093C428.473 179.377 426.735 180.099 424.923 180.101H280.481C278.668 180.099 276.931 179.377 275.65 178.093C274.369 176.809 273.648 175.069 273.646 173.253V141.293C273.648 139.478 274.369 137.737 275.65 136.453C276.931 135.169 278.668 134.447 280.481 134.445H424.923C426.735 134.447 428.473 135.169 429.754 136.453C431.035 137.737 431.756 139.478 431.758 141.293V173.253Z" fill="#3F3D56"/>
<path d="M431.757 146.315C437.545 146.315 442.238 141.614 442.238 135.814C442.238 130.015 437.545 125.313 431.757 125.313C425.969 125.313 421.277 130.015 421.277 135.814C421.277 141.614 425.969 146.315 431.757 146.315Z" fill="#3C7EF3"/>
<path d="M431.438 141.72C431.396 141.678 431.362 141.627 431.339 141.572C431.316 141.516 431.305 141.457 431.305 141.397V129.775C431.305 129.654 431.353 129.538 431.438 129.452C431.524 129.366 431.639 129.318 431.76 129.318C431.881 129.318 431.997 129.366 432.082 129.452C432.168 129.538 432.216 129.654 432.216 129.775V141.397C432.216 141.487 432.189 141.576 432.139 141.651C432.089 141.726 432.018 141.784 431.935 141.819C431.851 141.853 431.76 141.862 431.671 141.845C431.583 141.827 431.502 141.784 431.438 141.72Z" fill="white"/>
<path d="M425.637 135.909C425.574 135.845 425.53 135.764 425.513 135.675C425.495 135.586 425.504 135.495 425.539 135.411C425.573 135.328 425.632 135.257 425.706 135.206C425.781 135.156 425.869 135.129 425.96 135.129H437.559C437.679 135.129 437.795 135.177 437.881 135.263C437.966 135.349 438.014 135.465 438.014 135.586C438.014 135.707 437.966 135.823 437.881 135.909C437.795 135.994 437.679 136.042 437.559 136.042H425.96C425.9 136.043 425.84 136.031 425.785 136.008C425.73 135.985 425.68 135.951 425.637 135.909Z" fill="white"/>
<path d="M444.302 275.389H422.426C422.426 276.019 399.881 276.531 399.881 276.531C399.527 276.798 399.204 277.104 398.919 277.444C398.063 278.467 397.595 279.761 397.598 281.096V282.009C397.598 283.523 398.198 284.974 399.267 286.044C400.335 287.114 401.783 287.716 403.293 287.716H444.302C445.813 287.715 447.261 287.113 448.328 286.043C449.396 284.973 449.997 283.523 449.998 282.009V281.096C449.996 279.583 449.395 278.133 448.328 277.063C447.26 275.993 445.812 275.391 444.302 275.389Z" fill="#3F3D56"/>
<path d="M426.986 287.49H421.062V325.841H426.986V287.49Z" fill="#3F3D56"/>
<path d="M443.848 325.633C443.848 326.274 434.872 325.881 423.799 325.881C412.726 325.881 403.75 326.274 403.75 325.633C403.75 324.991 412.726 319.906 423.799 319.906C434.872 319.906 443.848 324.991 443.848 325.633Z" fill="#3F3D56"/>
<path d="M425.926 223.995C432.973 223.995 438.685 218.271 438.685 211.211C438.685 204.151 432.973 198.427 425.926 198.427C418.88 198.427 413.168 204.151 413.168 211.211C413.168 218.271 418.88 223.995 425.926 223.995Z" fill="#2F2E41"/>
<path d="M394.174 320.589L388.588 320.588L385.93 298.998L394.175 298.999L394.174 320.589Z" fill="#FFB8B8"/>
<path d="M384.6 318.989H395.373V325.786H377.816C377.816 323.983 378.531 322.254 379.803 320.98C381.075 319.705 382.801 318.989 384.6 318.989Z" fill="#2F2E41"/>
<path d="M385.455 317.464L380.125 315.788L384.04 294.391L391.906 296.865L385.455 317.464Z" fill="#FFB8B8"/>
<path d="M376.796 313.065L387.076 316.298L385.044 322.783L368.293 317.515C368.832 315.795 370.03 314.36 371.625 313.526C373.22 312.691 375.08 312.526 376.796 313.065Z" fill="#2F2E41"/>
<path d="M429.345 271.647C429.216 270.559 428.984 269.485 428.652 268.441L427.608 267.127L424.893 263.711L424.774 263.716C424.574 263.725 423.74 263.771 422.451 263.871H422.437C421.639 263.935 420.664 264.017 419.557 264.122C419.265 264.154 418.96 264.182 418.646 264.214V268.98H424.341C424.618 268.981 424.885 269.082 425.093 269.265C425.301 269.448 425.436 269.7 425.471 269.975C425.476 270.026 425.481 270.071 425.481 270.122C425.48 270.424 425.36 270.715 425.147 270.929C424.933 271.143 424.644 271.263 424.341 271.263H391.261C390.839 271.543 390.435 271.848 390.049 272.176C388.883 273.08 388.043 274.34 387.656 275.765C385.725 284.275 382.202 300.145 381.163 304.807C381.088 305.158 381.105 305.523 381.213 305.865C381.321 306.208 381.516 306.517 381.779 306.761C381.972 306.942 382.2 307.083 382.448 307.176L386.558 308.72C386.727 308.782 386.903 308.824 387.082 308.843C387.105 308.843 387.123 308.847 387.146 308.847C387.189 308.851 387.231 308.853 387.274 308.852C387.689 308.85 388.095 308.723 388.437 308.487C388.779 308.251 389.042 307.916 389.192 307.528L392.436 298.999L397.435 285.85L399.413 280.65C401.704 281.189 420.933 285.453 427.372 278.582C428.007 277.905 428.508 277.113 428.848 276.249C429.39 274.779 429.56 273.198 429.345 271.647Z" fill="#2F2E41"/>
<path d="M434.922 272.888C434.822 272.482 434.708 272.062 434.576 271.637L430.817 266.907L430.699 266.912C430.462 266.925 429.336 266.985 427.609 267.126C425.65 267.291 422.911 267.556 419.836 267.971C419.745 267.98 419.649 267.994 419.558 268.008C419.257 268.049 418.952 268.09 418.647 268.135V268.98H424.342C424.619 268.98 424.886 269.082 425.094 269.265C425.302 269.448 425.436 269.7 425.472 269.975C425.477 270.026 425.481 270.071 425.481 270.121C425.481 270.424 425.361 270.714 425.148 270.928C424.934 271.142 424.644 271.263 424.342 271.263H404.211C403.332 271.551 402.484 271.852 401.673 272.176C397.418 273.865 394.232 276.08 393.581 278.961C393.362 279.928 393.121 280.992 392.865 282.125C391.918 286.334 390.765 291.489 389.722 296.173V296.178C389.507 297.146 389.293 298.086 389.088 298.999C388.218 302.926 387.48 306.254 387.088 308.003C387.079 308.053 387.07 308.099 387.06 308.149V308.158C387.015 308.512 387.059 308.871 387.188 309.203L387.193 309.208V309.213C387.318 309.531 387.522 309.812 387.785 310.03C387.961 310.175 388.16 310.291 388.373 310.372L392.483 311.915C392.712 312.001 392.954 312.046 393.198 312.048C393.541 312.049 393.878 311.962 394.178 311.797C394.608 311.563 394.941 311.182 395.116 310.724L403.965 287.457L405.337 283.846C407.629 284.384 426.857 288.644 433.296 281.777C434.568 280.398 435.294 278.601 435.337 276.723C435.382 275.432 435.242 274.14 434.922 272.888Z" fill="#2F2E41"/>
<path d="M434.415 232.61C434.342 232.524 434.264 232.437 434.182 232.355C432.969 231.076 431.47 230.104 429.809 229.518C428.148 228.931 426.373 228.747 424.627 228.981C423.105 229.181 421.596 229.478 420.111 229.871C418.194 230.365 416.438 231.352 415.017 232.734C413.911 233.809 413.039 235.102 412.458 236.533C411.877 237.963 411.599 239.499 411.641 241.043C411.659 241.669 411.664 242.308 411.655 242.956C411.655 243.257 411.65 243.563 411.646 243.869H416.138C416.333 243.869 416.528 243.892 416.717 243.938C417.265 244.069 417.753 244.381 418.103 244.824C418.453 245.267 418.643 245.815 418.644 246.38V267.62C418.95 267.706 419.255 267.793 419.556 267.885C419.651 267.916 419.743 267.944 419.834 267.971C419.938 268.003 420.043 268.035 420.144 268.067C421.068 268.355 421.972 268.659 422.855 268.98H424.34C424.617 268.981 424.884 269.082 425.092 269.265C425.3 269.448 425.434 269.701 425.47 269.976C425.78 270.099 426.081 270.222 426.377 270.345C427.429 270.784 428.427 271.222 429.343 271.647C430.578 272.213 431.676 272.751 432.597 273.222C432.886 273.369 433.206 273.448 433.531 273.45C433.957 273.449 434.372 273.311 434.715 273.057C434.787 273.005 434.855 272.948 434.92 272.888C435.164 272.659 435.349 272.374 435.457 272.057C435.566 271.741 435.596 271.402 435.545 271.071C435.074 267.485 434.937 263.862 435.135 260.251C435.262 257.215 435.536 254.101 435.891 251.092C436.082 249.462 436.296 247.864 436.52 246.325C436.734 244.855 436.962 243.445 437.185 242.111C437.478 240.421 437.381 238.686 436.9 237.039C436.42 235.392 435.57 233.877 434.415 232.61Z" fill="#3C7EF3"/>
<path d="M415.736 232.984C415.502 232.884 415.262 232.8 415.016 232.733C413.802 232.406 412.51 232.527 411.378 233.074C410.245 233.621 409.347 234.559 408.846 235.715L405.716 242.956L405.324 243.869H416.137C416.332 243.868 416.526 243.891 416.716 243.937L417.08 243.093L418.465 239.888C419.015 238.609 419.037 237.165 418.525 235.87C418.014 234.576 417.011 233.538 415.736 232.984Z" fill="#3C7EF3"/>
<path d="M425.461 225.416C431.642 225.416 436.652 220.395 436.652 214.202C436.652 208.009 431.642 202.988 425.461 202.988C419.28 202.988 414.27 208.009 414.27 214.202C414.27 220.395 419.28 225.416 425.461 225.416Z" fill="#FFB8B8"/>
<path d="M414.066 208.692C419.367 211.935 425.344 213.908 431.53 214.458L429.689 212.248C431.029 212.744 432.44 213.025 433.868 213.079C435.294 213.057 436.789 212.507 437.598 211.33C437.959 210.745 438.174 210.081 438.223 209.395C438.273 208.709 438.156 208.021 437.883 207.39C437.322 206.131 436.449 205.037 435.347 204.212C433.393 202.664 431.087 201.623 428.635 201.184C426.183 200.745 423.66 200.921 421.292 201.695C419.668 202.182 418.213 203.117 417.095 204.393C416.034 205.705 413.991 206.873 414.534 208.471L414.066 208.692Z" fill="#2F2E41"/>
<path d="M427.343 199.643C423.813 196.056 419.542 193.288 414.829 191.535C411.804 190.412 408.512 189.718 405.349 190.356C402.187 190.993 399.196 193.185 398.314 196.294C397.592 198.837 398.337 201.574 399.457 203.967C400.577 206.36 402.071 208.58 402.977 211.062C403.901 213.595 404.178 216.319 403.785 218.987C403.392 221.655 402.339 224.182 400.724 226.34C399.109 228.497 396.981 230.215 394.535 231.34C392.088 232.464 389.4 232.958 386.715 232.777C389.822 233.195 392.686 234.658 395.724 235.437C398.761 236.216 402.345 236.163 404.603 233.983C406.991 231.676 407.038 227.925 406.923 224.604C406.751 219.666 406.58 214.728 406.408 209.79C406.321 207.272 406.246 204.673 407.152 202.323C408.058 199.973 410.212 197.915 412.727 197.936C414.633 197.952 416.32 199.109 417.848 200.25C419.376 201.391 420.994 202.608 422.892 202.778C424.791 202.947 426.958 201.54 426.816 199.635L427.343 199.643Z" fill="#2F2E41"/>
<path d="M436.52 246.326L430.132 246.499L429.667 250.996L429.562 252.037L419.556 256.539L418.645 256.95V264.954L419.556 264.693L422.436 263.871H422.449L435.135 260.251L435.28 260.21C436.305 259.913 437.208 259.293 437.853 258.442C438.498 257.591 438.852 256.553 438.862 255.484L438.894 250.174L438.921 246.262L436.52 246.326Z" fill="#FFB8B8"/>
<path d="M438.597 237.431C438.512 236.041 437.879 234.742 436.837 233.819C435.796 232.897 434.432 232.426 433.045 232.512C431.657 232.597 430.361 233.231 429.44 234.275C428.519 235.318 428.05 236.685 428.135 238.075L428.832 249.471C428.851 249.771 428.935 250.063 429.079 250.326C429.223 250.59 429.424 250.819 429.666 250.996C430.051 251.284 430.526 251.424 431.005 251.393L435.89 251.092L437.371 251C437.641 250.987 437.905 250.919 438.148 250.801C438.391 250.682 438.607 250.516 438.784 250.311C438.823 250.268 438.859 250.222 438.893 250.174C439.182 249.786 439.325 249.307 439.294 248.823L438.597 237.431Z" fill="#3C7EF3"/>
<path d="M420.144 268.067H419.556V268.008C419.255 268.049 418.95 268.09 418.645 268.136V268.98H422.855C421.971 268.661 421.067 268.356 420.144 268.067ZM420.144 268.067H419.556V268.008C419.255 268.049 418.95 268.09 418.645 268.136V268.98H422.855C421.971 268.661 421.067 268.356 420.144 268.067ZM424.341 268.067H419.556V246.38C419.554 245.638 419.312 244.916 418.866 244.323C418.42 243.73 417.794 243.299 417.082 243.093C416.776 243.001 416.458 242.955 416.139 242.956H375.585C374.679 242.957 373.811 243.318 373.17 243.96C372.529 244.602 372.169 245.472 372.168 246.38V268.752C372.168 269.66 372.528 270.531 373.169 271.173C373.81 271.815 374.679 272.176 375.585 272.176H424.341C424.845 272.175 425.332 271.988 425.708 271.65C426.083 271.313 426.322 270.848 426.377 270.345C426.386 270.271 426.391 270.196 426.391 270.122C426.39 269.577 426.174 269.055 425.789 268.67C425.405 268.285 424.884 268.068 424.341 268.067ZM425.48 270.122C425.48 270.424 425.359 270.715 425.146 270.929C424.932 271.143 424.643 271.263 424.341 271.263H375.585C374.921 271.263 374.284 270.998 373.814 270.527C373.344 270.056 373.08 269.418 373.079 268.752V246.38C373.08 245.714 373.344 245.076 373.814 244.605C374.284 244.134 374.921 243.87 375.585 243.869H416.139C416.334 243.869 416.528 243.892 416.717 243.938C417.266 244.069 417.754 244.381 418.104 244.824C418.453 245.267 418.644 245.815 418.645 246.38V268.98H424.341C424.617 268.981 424.885 269.082 425.092 269.265C425.3 269.448 425.435 269.701 425.471 269.976C425.475 270.026 425.48 270.071 425.48 270.122ZM420.144 268.067H419.556V268.008C419.255 268.049 418.95 268.09 418.645 268.136V268.98H422.855C421.971 268.661 421.067 268.356 420.144 268.067Z" fill="#3F3D56"/>
<path d="M395.859 260.306C397.369 260.306 398.593 259.079 398.593 257.567C398.593 256.054 397.369 254.827 395.859 254.827C394.349 254.827 393.125 256.054 393.125 257.567C393.125 259.079 394.349 260.306 395.859 260.306Z" fill="#3C7EF3"/>
<path d="M151.667 32.5841C151.657 32.7927 151.664 33.0018 151.686 33.2094L137.378 45.2417L133.111 43.6937L129.938 49.8408L139.266 54.2902L154.909 36.7016C155.699 36.8452 156.514 36.7444 157.245 36.4127C157.976 36.081 158.59 35.534 159.003 34.8446C159.417 34.1552 159.611 33.3559 159.56 32.5532C159.509 31.7504 159.216 30.9822 158.719 30.3506C158.221 29.7191 157.544 29.2542 156.777 29.0178C156.009 28.7813 155.188 28.7846 154.423 29.027C153.658 29.2695 152.984 29.7397 152.492 30.3751C151.999 31.0105 151.712 31.781 151.667 32.5841L151.667 32.5841Z" fill="#FFB8B8"/>
<path d="M132.477 52.7895L118.659 47.7922C117.391 47.3334 116.356 46.3885 115.783 45.1654C115.21 43.9422 115.145 42.541 115.603 41.27C116.061 39.999 117.004 38.9623 118.224 38.3879C119.445 37.8136 120.844 37.7486 122.112 38.2074L135.929 43.2047C136.139 43.2804 136.331 43.3966 136.496 43.5468C136.66 43.6971 136.793 43.8783 136.888 44.0801C136.983 44.282 137.037 44.5006 137.047 44.7234C137.057 44.9461 137.024 45.1688 136.948 45.3785L134.646 51.7686C134.493 52.1919 134.179 52.537 133.772 52.7284C133.365 52.9198 132.899 52.9417 132.477 52.7895V52.7895Z" fill="#CCCCCC"/>
<path d="M122.356 101.473L126.974 101.472L129.171 83.625L122.355 83.6255L122.356 101.473Z" fill="#FFB8B8"/>
<path d="M135.879 105.768L121.366 105.769L121.366 100.15L130.271 100.15C131.758 100.15 133.185 100.742 134.236 101.795C135.288 102.849 135.879 104.278 135.879 105.768L135.879 105.768Z" fill="#2F2E41"/>
<path d="M110.945 95.4951L114.723 98.1564L126.765 84.8234L121.19 80.896L110.945 95.4951Z" fill="#FFB8B8"/>
<path d="M119.086 105.891L107.214 97.5267L110.439 92.9305L117.724 98.0629C118.941 98.92 119.768 100.226 120.023 101.694C120.278 103.162 119.941 104.672 119.086 105.891L119.086 105.891Z" fill="#2F2E41"/>
<path d="M132.461 69.323C132.461 69.323 143.985 67.9606 141.917 75.4535C139.849 82.9464 116.801 89.4175 116.801 89.4175L132.461 69.323Z" fill="#FFB8B8"/>
<path d="M124.529 31.0905C129.638 31.0905 133.78 26.9403 133.78 21.8209C133.78 16.7014 129.638 12.5513 124.529 12.5513C119.419 12.5513 115.277 16.7014 115.277 21.8209C115.277 26.9403 119.419 31.0905 124.529 31.0905Z" fill="#FFB8B8"/>
<path d="M95.0267 87.8835C89.7627 81.7417 87.9206 72.3157 96.3154 64.4759C98.3887 62.5873 100.736 61.0252 103.278 59.843L110.044 40.884C110.746 38.9042 112.035 37.1862 113.737 35.9592C115.44 34.7322 117.475 34.0545 119.572 34.0165C121.608 33.9285 123.621 34.4741 125.335 35.5785C127.048 36.6829 128.379 38.2919 129.144 40.1845C129.97 42.1099 130.064 44.2717 129.409 46.2621C127.395 52.5468 124.75 58.6107 121.515 64.3605L121.865 67.1649L138.966 68.6879L138.807 68.9477C138.724 69.0833 130.354 81.8611 119.647 90.3426C115.986 93.2424 112.2 94.4443 108.627 94.444C103.209 94.4436 98.2805 91.6797 95.0267 87.8835Z" fill="#CCCCCC"/>
<path d="M93.4137 24.7291C95.0504 22.7749 95.7524 20.2189 96.3172 17.7313C97.2107 13.7953 97.9022 9.72543 99.8874 6.21303C101.872 2.70068 105.521 -0.209663 109.543 0.0118667C113.542 0.232132 116.776 3.45625 118.492 7.12465C118.908 6.96291 119.353 6.89045 119.798 6.91197C120.243 6.93348 120.679 7.04849 121.077 7.24955C122.314 7.92831 122.777 9.85756 121.747 10.8234C122.83 10.3067 124.01 10.0241 125.209 9.99419C126.408 9.96424 127.6 10.1875 128.707 10.6495C130.131 11.2569 131.36 12.2461 132.259 13.5082C133.158 14.7703 133.692 16.2564 133.803 17.8031C133.846 18.4308 133.76 19.0608 133.55 19.6539C133.341 20.247 133.011 20.7906 132.583 21.251C130.808 23.0819 128.298 22.4504 126.066 21.9839C123.957 21.5434 121.389 21.4245 120.202 23.4374C119.734 24.2761 119.603 25.2622 119.835 26.1944C120.29 28.2038 121.775 29.6034 123.216 30.9429L123.451 31.3814C118.365 32.3752 112.812 28.8949 111.477 23.878C110.143 18.8611 113.232 13.0734 118.137 11.3998C117.811 11.41 117.488 11.3326 117.201 11.1758C116.914 11.0189 116.675 10.7882 116.507 10.5075C116.339 10.2268 116.249 9.90622 116.246 9.57897C116.243 9.25173 116.328 8.92966 116.491 8.64602C115.133 7.88389 113.596 7.49976 112.04 7.53351C109.507 7.70005 107.314 9.50717 105.996 11.6814C104.677 13.8556 104.08 16.3792 103.475 18.8501C102.87 21.321 102.216 23.8392 100.806 25.9551C99.8294 27.4207 98.5245 28.6372 96.9954 29.5077C95.4664 30.3782 93.7554 30.8785 91.9991 30.9688C90.2428 31.0591 88.4897 30.7367 86.8798 30.0276C85.2698 29.3184 83.8476 28.2421 82.7266 26.8843C84.4981 27.7451 86.5024 28.0004 88.4326 27.6111C90.3628 27.2219 92.1124 26.2095 93.4137 24.7291Z" fill="#2F2E41"/>
<path d="M161.361 49.9911C168.788 49.9911 174.809 43.9585 174.809 36.517C174.809 29.0755 168.788 23.043 161.361 23.043C153.935 23.043 147.914 29.0755 147.914 36.517C147.914 43.9585 153.935 49.9911 161.361 49.9911Z" fill="#3C7EF3"/>
<path d="M160.949 44.0944C160.894 44.0401 160.851 43.9755 160.822 43.9044C160.792 43.8333 160.777 43.7571 160.777 43.6802V28.7674C160.777 28.6121 160.839 28.4631 160.949 28.3532C161.058 28.2434 161.207 28.1816 161.362 28.1816C161.517 28.1816 161.666 28.2434 161.775 28.3532C161.885 28.4631 161.947 28.6121 161.947 28.7674V43.6802C161.947 43.796 161.912 43.9093 161.848 44.0056C161.784 44.1019 161.692 44.177 161.586 44.2214C161.479 44.2657 161.361 44.2773 161.248 44.2547C161.134 44.2321 161.03 44.1763 160.949 44.0944H160.949Z" fill="white"/>
<path d="M153.507 36.6382C153.425 36.5563 153.37 36.4519 153.347 36.3383C153.325 36.2246 153.336 36.1068 153.38 35.9998C153.425 35.8928 153.5 35.8013 153.596 35.7369C153.692 35.6726 153.805 35.6382 153.921 35.6382H168.804C168.959 35.6382 169.107 35.6999 169.217 35.8098C169.327 35.9196 169.388 36.0686 169.388 36.224C169.388 36.3793 169.327 36.5283 169.217 36.6382C169.107 36.748 168.959 36.8097 168.804 36.8097H153.921C153.844 36.8099 153.768 36.7948 153.697 36.7653C153.626 36.7359 153.561 36.6927 153.507 36.6382Z" fill="white"/>
<path d="M152.13 45.5294C152.032 45.7139 151.949 45.9058 151.882 46.1034L133.826 50.901L130.62 47.6825L125.141 51.8952L131.698 59.8958L153.318 50.637C153.972 51.1033 154.752 51.3591 155.555 51.3703C156.357 51.3815 157.145 51.1476 157.811 50.6997C158.478 50.2517 158.993 49.611 159.287 48.8627C159.582 48.1144 159.642 47.294 159.46 46.5106C159.278 45.7272 158.862 45.018 158.268 44.4772C157.673 43.9364 156.929 43.5897 156.133 43.4831C155.338 43.3766 154.528 43.5153 153.813 43.8809C153.098 44.2464 152.511 44.8214 152.13 45.5294L152.13 45.5294Z" fill="#FFB8B8"/>
<path d="M126.187 55.6455L115.8 45.2376C115.327 44.7647 114.951 44.203 114.694 43.5845C114.438 42.966 114.305 42.3029 114.305 41.6331C114.304 40.9632 114.435 40.2999 114.691 39.6809C114.946 39.062 115.321 38.4996 115.794 38.026C116.267 37.5523 116.828 37.1768 117.446 36.9207C118.063 36.6646 118.725 36.5331 119.394 36.5337C120.062 36.5343 120.724 36.6669 121.341 36.924C121.959 37.1811 122.519 37.5577 122.991 38.0321L133.378 48.4401C133.536 48.5977 133.661 48.7849 133.746 48.991C133.831 49.197 133.875 49.4178 133.875 49.6409C133.875 49.8639 133.831 50.0847 133.746 50.2907C133.661 50.4968 133.536 50.684 133.378 50.8416L128.584 55.6455C128.266 55.9634 127.835 56.142 127.386 56.142C126.937 56.142 126.506 55.9634 126.187 55.6455V55.6455Z" fill="#CCCCCC"/>
</g>
<defs>
<clipPath id="clip0">
<rect width="450" height="326" fill="white"/>
</clipPath>
</defs>
</svg>
