<svg width="40" height="40" viewBox="0 0 40 40" fill="none" xmlns="http://www.w3.org/2000/svg">
<circle cx="20" cy="20" r="20" fill="#9B51E0"/>
<mask id="mask0" mask-type="alpha" maskUnits="userSpaceOnUse" x="0" y="0" width="40" height="40">
<circle cx="20" cy="20" r="20" fill="#FFEBF3"/>
</mask>
<g mask="url(#mask0)">
<g clip-path="url(#clip0)">
<path d="M32.6117 36.13V39.3449C32.6117 39.7069 32.3186 40 31.9566 40H8.04572C7.68378 40 7.39062 39.7069 7.39062 39.3449V36.13C7.39062 32.7571 10.1248 30.0246 13.4986 30.0238C14.6908 30.0229 15.7406 29.4096 16.3449 28.4794C16.952 27.5464 16.8895 26.735 16.8895 26.0793L16.9018 26.049C13.962 24.8321 11.8944 21.9358 11.8944 18.5563V18.3C10.7271 18.3 9.84723 17.3776 9.84723 16.2905V12.8873C9.82102 11.7024 9.87507 7.52375 12.8934 4.61432C16.4031 1.23158 21.9648 1.50836 25.9936 3.31805C26.1247 3.37701 26.1206 3.56453 25.9879 3.6194L24.9373 4.05176C24.7801 4.11645 24.8137 4.34819 24.9823 4.3662L25.4925 4.42107C27.9352 4.68229 30.2043 6.00885 31.6111 8.21652C31.6487 8.27629 31.6381 8.36719 31.5898 8.41878C30.7218 9.33673 30.237 10.5552 30.237 11.822V16.2905C30.237 17.4001 29.3371 18.3 28.2275 18.3H28.108V18.5563C28.108 21.9358 26.0403 24.8321 23.1006 26.049L23.1129 26.0793C23.1129 26.7161 23.0451 27.5385 23.6574 28.4794C24.2617 29.4096 25.3115 30.0229 26.5038 30.0238C29.8775 30.0246 32.6117 32.7571 32.6117 36.13Z" fill="#FFDFBA"/>
<path d="M32.6117 36.1311V39.346C32.6117 39.7078 32.3184 40.0011 31.9566 40.0011H8.04572C7.68394 40.0011 7.39062 39.7078 7.39062 39.346V36.1311C7.39062 32.7582 10.1252 30.0261 13.4981 30.0249C14.6907 30.0244 15.7408 29.4104 16.3449 28.4805C18.4538 30.2821 21.5473 30.2832 23.6574 28.4805C24.2615 29.4104 25.3116 30.0244 26.5042 30.0249C29.8771 30.0261 32.6117 32.7582 32.6117 36.1311Z" fill="#FE4F60"/>
<path d="M31.6106 8.21688C31.6486 8.27657 31.6379 8.36698 31.5894 8.4184C30.7216 9.33701 30.2369 10.5551 30.2369 11.8219V16.2905C30.2369 17.3049 29.4726 18.3 28.1078 18.3V13.2419C28.1078 11.071 26.3481 9.31129 24.1773 9.31129H15.8248C13.654 9.31129 11.8943 11.071 11.8943 13.2419V18.3C10.727 18.3 9.84709 17.3775 9.84709 16.2905V12.8873C9.82088 11.7024 9.87493 7.52371 12.8933 4.61427C16.4027 1.23145 21.965 1.50839 25.9932 3.31825C26.1242 3.37713 26.1208 3.56473 25.9878 3.61943L24.9372 4.05196C24.7801 4.11665 24.8132 4.34814 24.982 4.36624L25.4924 4.42102C27.9354 4.68199 30.2039 6.00856 31.6106 8.21688Z" fill="#42434D"/>
<path d="M28.1081 18.5575C28.1081 23.0364 24.4766 26.6643 20.0013 26.6643C15.7848 26.6643 11.8945 23.3863 11.8945 18.3012V13.2431C11.8945 11.0722 13.6543 9.3125 15.8251 9.3125H24.1775C26.3483 9.3125 28.1081 11.0722 28.1081 13.2431V18.5575Z" fill="#FFEBD2"/>
<path d="M26.6321 38.6071H24.6668C24.305 38.6071 24.0117 38.3137 24.0117 37.952C24.0117 37.5902 24.305 37.2969 24.6668 37.2969H26.6321C26.9939 37.2969 27.2872 37.5902 27.2872 37.952C27.2872 38.3137 26.994 38.6071 26.6321 38.6071Z" fill="white"/>
<path d="M18.1657 23.7918C19.4986 24.6257 18.4476 26.6707 16.9885 26.085C13.9887 24.8809 11.8945 21.9576 11.8945 18.557V13.2426C11.8945 12.4168 12.1492 11.6505 12.5842 11.0179C13.1176 10.2421 14.3511 10.5848 14.3511 11.6048V16.9193C14.3511 19.9089 15.9227 22.3885 18.1657 23.7918Z" fill="#FFF3E4"/>
<path d="M23.2053 27.4257C21.1879 28.2702 18.9708 28.3357 16.7969 27.4257C16.9079 26.965 16.8894 26.6666 16.8894 26.0811L16.9017 26.0508C18.8737 26.8693 21.1247 26.871 23.1005 26.0508L23.1128 26.0811C23.1128 26.6668 23.0943 26.9651 23.2053 27.4257Z" fill="#FFD6A6"/>
<path d="M16.7979 32.003C16.4951 32.0982 16.1704 32.1507 15.8222 32.1537C12.4406 32.1835 9.68345 34.8574 9.68345 38.2392V38.8547C9.68345 39.4878 9.17019 40.0011 8.53704 40.0011H8.04572C7.68394 40.0011 7.39062 39.7078 7.39062 39.346V36.1311C7.39062 32.7581 10.1252 30.0261 13.4981 30.0249C14.6907 30.0244 15.7408 29.4104 16.3449 28.4805C16.5885 28.6885 16.8492 28.8754 17.1238 29.0391C18.3319 29.759 18.1394 31.5812 16.7979 32.003Z" fill="#FF6D7A"/>
<path d="M23.2031 32.002C23.5059 32.0972 23.8306 32.1497 24.1788 32.1528C27.5604 32.1826 30.3176 34.8564 30.3176 38.2382V38.8537C30.3176 39.4869 30.8308 40.0001 31.464 40.0001H31.9553C32.3171 40.0001 32.6104 39.7068 32.6104 39.345V36.1302C32.6104 32.7572 29.8758 30.0251 26.5029 30.0239C25.3103 30.0235 24.2602 29.4094 23.6561 28.4795C23.4125 28.6875 23.1518 28.8744 22.8772 29.0381C21.6692 29.758 21.8616 31.5802 23.2031 32.002Z" fill="#E84857"/>
<path d="M25.9878 3.6194C25.0249 4.01565 24.8877 4.10302 24.5541 4.05127C19.1763 3.21766 14.458 5.44277 12.8556 10.6666V10.6674C12.2562 11.3569 11.8943 12.2576 11.8943 13.2419V16.3145C11.8943 17.6401 9.84709 17.7324 9.84709 16.2905V12.8873C9.82088 11.7024 9.87493 7.52375 12.8933 4.61432C16.4029 1.23158 21.9647 1.50836 25.9935 3.31805C26.1245 3.37701 26.1204 3.56453 25.9878 3.6194Z" fill="#4D4E59"/>
</g>
</g>
<defs>
<clipPath id="clip0">
<rect width="38" height="38" fill="white" transform="translate(1 2)"/>
</clipPath>
</defs>
</svg>
