<svg width="22" height="22" viewBox="0 0 22 22" fill="none" xmlns="http://www.w3.org/2000/svg">
<path d="M13.7547 7.99414H8.25913C8.12756 7.99414 8.01953 8.09732 8.01953 8.23097V13.7861C8.01953 13.917 8.12687 14.0243 8.25913 14.0243H13.7547C13.8863 14.0243 13.9929 13.9177 13.9929 13.7861V8.23097C13.9922 8.09801 13.8863 7.99414 13.7547 7.99414Z" fill="#FF264A"/>
<path d="M11.0061 0.592285C5.2606 0.592285 0.601562 5.24993 0.601562 10.9969C0.601562 16.7438 5.2606 21.4014 11.0061 21.4014C16.7524 21.4014 21.4093 16.7438 21.4093 10.9969C21.4093 5.24993 16.7524 0.592285 11.0061 0.592285ZM11.0061 19.6633C6.21969 19.6633 2.33901 15.7826 2.33901 10.9969C2.33901 6.20902 6.21969 2.32904 11.0061 2.32904C15.7933 2.32904 19.6719 6.20902 19.6719 10.9969C19.6719 15.7826 15.7933 19.6633 11.0061 19.6633Z" fill="#FF264A"/>
</svg>
