<svg width="27" height="22" viewBox="0 0 27 22" fill="none" xmlns="http://www.w3.org/2000/svg">
<path d="M4.77493 7.41419C5.98568 2.59093 10.8771 -0.337565 15.7004 0.873186C19.4697 1.81939 22.2066 5.0771 22.4886 8.95303C25.1649 9.39439 26.9767 11.9217 26.5354 14.5981C26.143 16.9774 24.0814 18.7198 21.67 18.7103H17.5772V17.0731H21.67C23.4783 17.0731 24.9442 15.6072 24.9442 13.7989C24.9442 11.9906 23.4783 10.5247 21.67 10.5247C21.2179 10.5247 20.8514 10.1582 20.8514 9.7061C20.8555 5.6374 17.5605 2.33575 13.4918 2.33171C9.96971 2.32818 6.93782 4.81813 6.25653 8.27363C6.18925 8.61865 5.90925 8.88222 5.56075 8.92847C3.32291 9.24715 1.76719 11.3196 2.08581 13.5574C2.37195 15.5668 4.08765 17.063 6.11737 17.0731H9.39161V18.7103H6.11737C2.95282 18.7007 0.395231 16.1275 0.40485 12.963C0.41283 10.3288 2.21591 8.03931 4.77493 7.41419Z" fill="#3C7EF3"/>
<path d="M14.0656 10.762L17.3398 14.0362L16.1857 15.1904L14.303 13.3159V21.1659H12.6659V13.3159L10.7914 15.1904L9.6372 14.0362L12.9114 10.762C13.2307 10.4446 13.7463 10.4446 14.0656 10.762Z" fill="#3C7EF3"/>
</svg>
