<svg width="11" height="16" viewBox="0 0 11 16" fill="none" xmlns="http://www.w3.org/2000/svg">
<path d="M10.2392 8.26388C10.2392 7.94391 9.99456 7.69922 9.67458 7.69922C9.35461 7.69922 9.10992 7.94391 9.10992 8.26388C9.10992 10.4661 7.32182 12.2542 5.11962 12.2542C2.91743 12.2542 1.12933 10.4661 1.12933 8.26388C1.12933 7.94391 0.884641 7.69922 0.564664 7.69922C0.244688 7.69922 0 7.94391 0 8.26388C0 10.8802 1.9575 13.0824 4.55496 13.3647V14.8705H2.50335C2.18337 14.8705 1.93868 15.1151 1.93868 15.4351C1.93868 15.7551 2.18337 15.9998 2.50335 15.9998H7.7359C8.05588 15.9998 8.30057 15.7551 8.30057 15.4351C8.30057 15.1151 8.05588 14.8705 7.7359 14.8705H5.68429V13.3647C8.28174 13.0824 10.2392 10.8802 10.2392 8.26388Z" fill="#3C7EF3"/>
<path d="M5.11986 0C3.38822 0 1.97656 1.41166 1.97656 3.1433V8.2441C1.97656 9.99456 3.38822 11.3874 5.11986 11.4062C6.8515 11.4062 8.26316 9.99456 8.26316 8.26292V3.1433C8.26316 1.41166 6.8515 0 5.11986 0Z" fill="#3C7EF3"/>
</svg>
