<svg width="16" height="14" viewBox="0 0 16 14" fill="none" xmlns="http://www.w3.org/2000/svg">
<path d="M2.66666 0C1.95942 0 1.28114 0.280951 0.781048 0.781048C0.280951 1.28114 0 1.95942 0 2.66666V2.93466L7.99999 7.24266L16 2.936V2.66666C16 1.95942 15.719 1.28114 15.2189 0.781048C14.7188 0.280951 14.0406 0 13.3333 0H2.66666Z" fill="#3C7EF3"/>
<path d="M16 4.44922L8.31599 8.58655C8.21887 8.63883 8.11029 8.6662 7.99999 8.6662C7.88969 8.6662 7.78112 8.63883 7.68399 8.58655L0 4.44922V10.6665C0 11.3738 0.280951 12.0521 0.781048 12.5522C1.28114 13.0523 1.95942 13.3332 2.66666 13.3332H13.3333C14.0406 13.3332 14.7188 13.0523 15.2189 12.5522C15.719 12.0521 16 11.3738 16 10.6665V4.44922Z" fill="#3C7EF3"/>
</svg>
