<svg width="16" height="16" viewBox="0 0 16 16" fill="none" xmlns="http://www.w3.org/2000/svg">
<path d="M15.5026 5.92818C14.92 5.43835 14.0286 5.4967 13.5227 6.09984L13.2188 6.45948L15.3734 8.26733L15.6636 7.90901C16.1629 7.31523 16.0997 6.42845 15.5026 5.92818Z" fill="#133159"/>
<path d="M9.41433 10.9536L9.25398 11.1434C9.11482 11.31 9.01457 11.5091 8.96422 11.7202L8.52842 13.544C8.48724 13.7165 8.54721 13.8978 8.68315 14.0118C8.81547 14.123 9.0021 14.1553 9.1707 14.0832L10.8915 13.337C11.0906 13.2505 11.2692 13.1173 11.4083 12.9521L11.5692 12.7617L9.41433 10.9536Z" fill="#133159"/>
<path d="M12.6149 7.17041L10.0234 10.2366L12.1782 12.0447L14.7695 8.97826L12.6149 7.17041Z" fill="#133159"/>
<path d="M11.7495 2.075L9.96874 0.383027C9.80039 0.223428 9.59329 0.129424 9.375 0.0683594V2.80927H12.158C12.0998 2.53083 11.9579 2.27288 11.7495 2.075Z" fill="#133159"/>
<path d="M8.05511 11.5033C8.13889 11.1526 8.30596 10.8207 8.5376 10.5433L12.1879 6.22395V3.75014H8.90658C8.64747 3.75014 8.43781 3.54047 8.43781 3.28137V0H1.4063C0.630836 0 0 0.630836 0 1.4063V14.5943C0 15.3698 0.630836 16.0006 1.4063 16.0006H10.7816C11.5571 16.0006 12.1879 15.3698 12.1879 14.5943V13.4862L12.1271 13.5582C11.8968 13.8324 11.5997 14.0535 11.2687 14.1977L9.54657 14.9444C9.06118 15.154 8.49931 15.0797 8.08352 14.7315C7.67288 14.3868 7.49481 13.8489 7.61931 13.3271L8.05511 11.5033ZM2.34384 2.8126H7.03151C7.29061 2.8126 7.50028 3.02227 7.50028 3.28137C7.50028 3.54047 7.29061 3.75014 7.03151 3.75014H2.34384C2.08473 3.75014 1.87507 3.54047 1.87507 3.28137C1.87507 3.02227 2.08473 2.8126 2.34384 2.8126ZM2.34384 5.65646H9.84411C10.1032 5.65646 10.3129 5.86612 10.3129 6.12523C10.3129 6.38433 10.1032 6.59399 9.84411 6.59399H2.34384C2.08473 6.59399 1.87507 6.38433 1.87507 6.12523C1.87507 5.86612 2.08473 5.65646 2.34384 5.65646ZM6.09397 12.2192H2.34384C2.08473 12.2192 1.87507 12.0095 1.87507 11.7504C1.87507 11.4913 2.08473 11.2817 2.34384 11.2817H6.09397C6.35308 11.2817 6.56274 11.4913 6.56274 11.7504C6.56274 12.0095 6.35308 12.2192 6.09397 12.2192ZM2.34384 9.4066C2.08473 9.4066 1.87507 9.19693 1.87507 8.93783C1.87507 8.67873 2.08473 8.46906 2.34384 8.46906H7.96904C8.22815 8.46906 8.43781 8.67873 8.43781 8.93783C8.43781 9.19693 8.22815 9.4066 7.96904 9.4066H2.34384Z" fill="#133159"/>
</svg>
