<svg width="17" height="16" viewBox="0 0 17 16" fill="none" xmlns="http://www.w3.org/2000/svg">
<ellipse cx="8.14453" cy="7.6" rx="8" ry="7.6" fill="#3C7EF3"/>
<path d="M8.14456 0C3.73335 0 0.144561 3.31169 0.144561 7.38226C0.144561 8.91225 0.638935 10.3624 1.57878 11.6023L0.196425 15.0222C0.0878816 15.2906 0.152897 15.5979 0.360722 15.7994C0.496124 15.9309 0.674684 16 0.856022 16C0.952896 16 1.05051 15.9802 1.14276 15.9396L5.08089 14.2037C6.05204 14.5762 7.08117 14.7647 8.14456 14.7647C9.49209 14.7647 10.8246 14.4496 11.998 13.8538C12.3483 13.6758 12.488 13.2477 12.3102 12.8974C12.1321 12.5472 11.7041 12.4075 11.3538 12.5853C10.3792 13.0804 9.26945 13.3422 8.14456 13.3422C7.16711 13.3422 6.22634 13.1521 5.34799 12.7774C5.1672 12.7002 4.96216 12.7013 4.78193 12.7807L2.1717 13.9314L3.05394 11.7488C3.15341 11.503 3.10784 11.2226 2.93595 11.0207C2.04037 9.97027 1.56711 8.71202 1.56711 7.38245C1.56711 4.09613 4.5178 1.42255 8.14456 1.42255C11.7713 1.42255 14.722 4.09613 14.722 7.38245C14.722 8.51253 14.3712 9.61222 13.7073 10.5628C13.4825 10.8849 13.5612 11.3284 13.8833 11.5532C14.2052 11.7781 14.6488 11.6994 14.8737 11.3773C15.705 10.1866 16.1446 8.80519 16.1446 7.38245C16.1446 3.31169 12.5558 0 8.14456 0Z" fill="#3C7EF3"/>
<path d="M13.5609 7.66355L10.7663 4.42076C10.627 4.25906 10.4244 4.16885 10.2094 4.17404C9.99616 4.17941 9.79648 4.28036 9.66571 4.44892L7.07771 7.78247L6.22214 6.7726C6.08674 6.61294 5.88836 6.52106 5.67942 6.52106C5.67738 6.52106 5.67535 6.52106 5.67331 6.52106C5.46215 6.52273 5.26266 6.61831 5.12892 6.78186L3.30925 9.00553C3.06048 9.30949 3.10531 9.75774 3.40927 10.0065C3.71323 10.2553 4.16148 10.2104 4.41006 9.90648L5.68887 8.34389L6.46794 9.26355C6.51313 9.34653 6.57518 9.42192 6.65428 9.4836L8.77329 11.9849C8.91406 12.1511 9.11448 12.2366 9.31637 12.2365C9.47882 12.2365 9.64219 12.1813 9.77574 12.0679C10.0754 11.814 10.1127 11.3651 9.85872 11.0654L8.01737 8.8918L10.2562 6.00798L12.4834 8.59228C12.7398 8.88976 13.1889 8.9231 13.4864 8.66674C13.7841 8.4102 13.8174 7.96121 13.5609 7.66355Z" fill="#3C7EF3"/>
<path d="M6.38427 4.38842C6.38427 4.90002 5.96936 5.31493 5.45776 5.31493C4.94598 5.31493 4.53125 4.90002 4.53125 4.38842C4.53125 3.87664 4.94598 3.46191 5.45776 3.46191C5.96936 3.46191 6.38427 3.87664 6.38427 4.38842Z" fill="#3C7EF3"/>
<path d="M1.74219 14.8043L2.54219 12.4043L4.94219 13.6043L1.74219 14.8043Z" fill="#3C7EF3"/>
</svg>
