<svg width="16" height="10" viewBox="0 0 16 10" fill="none" xmlns="http://www.w3.org/2000/svg">
<path d="M9.05039 0H1.75056C0.787752 0 0 0.787752 0 1.75056V7.64994C0 8.61275 0.787752 9.4005 1.75056 9.4005H9.05039C10.0132 9.4005 10.8009 8.61275 10.8009 7.64994V1.75056C10.8009 0.770246 10.0132 0 9.05039 0Z" fill="#133159"/>
<path d="M14.7042 0.963255C14.5992 0.980761 14.4942 1.03328 14.4066 1.08579L11.6758 2.6613V6.7226L14.4242 8.2981C14.9318 8.5957 15.562 8.42064 15.8596 7.91298C15.9471 7.75543 15.9997 7.58037 15.9997 7.38781V1.97858C15.9997 1.33087 15.387 0.805705 14.7042 0.963255Z" fill="#133159"/>
</svg>
